<mxfile host="app.diagrams.net" modified="2022-12-04T14:03:49.617Z" agent="5.0 (Windows NT 10.0; Win64; x64) AppleWebKit/537.36 (KHTML, like Gecko) Chrome/106.0.0.0 YaBrowser/22.11.0.2500 Yowser/2.5 Safari/537.36" etag="XuxnGLUUz3uicwikIehp" version="20.6.0" type="github">
  <diagram id="C5RBs43oDa-KdzZeNtuy" name="Page-1">
    <mxGraphModel dx="2760" dy="1141" grid="1" gridSize="10" guides="1" tooltips="1" connect="1" arrows="1" fold="1" page="1" pageScale="1" pageWidth="827" pageHeight="1169" math="0" shadow="0">
      <root>
        <mxCell id="WIyWlLk6GJQsqaUBKTNV-0" />
        <mxCell id="WIyWlLk6GJQsqaUBKTNV-1" parent="WIyWlLk6GJQsqaUBKTNV-0" />
        <mxCell id="-MMtbb6PxucikG_57jku-2" value="" style="edgeStyle=orthogonalEdgeStyle;rounded=0;orthogonalLoop=1;jettySize=auto;html=1;" edge="1" parent="WIyWlLk6GJQsqaUBKTNV-1" source="-MMtbb6PxucikG_57jku-0" target="-MMtbb6PxucikG_57jku-1">
          <mxGeometry relative="1" as="geometry" />
        </mxCell>
        <mxCell id="-MMtbb6PxucikG_57jku-0" value="НАЧАЛО" style="strokeWidth=2;html=1;shape=mxgraph.flowchart.terminator;whiteSpace=wrap;" vertex="1" parent="WIyWlLk6GJQsqaUBKTNV-1">
          <mxGeometry x="-170" y="50" width="100" height="60" as="geometry" />
        </mxCell>
        <mxCell id="-MMtbb6PxucikG_57jku-27" style="edgeStyle=orthogonalEdgeStyle;rounded=0;orthogonalLoop=1;jettySize=auto;html=1;exitX=0.5;exitY=1;exitDx=0;exitDy=0;entryX=0.5;entryY=0;entryDx=0;entryDy=0;entryPerimeter=0;" edge="1" parent="WIyWlLk6GJQsqaUBKTNV-1" source="-MMtbb6PxucikG_57jku-1" target="-MMtbb6PxucikG_57jku-26">
          <mxGeometry relative="1" as="geometry" />
        </mxCell>
        <mxCell id="-MMtbb6PxucikG_57jku-1" value="&lt;font style=&quot;font-size: 14px;&quot;&gt;gl_key=_getch()&lt;/font&gt;" style="whiteSpace=wrap;html=1;strokeWidth=2;" vertex="1" parent="WIyWlLk6GJQsqaUBKTNV-1">
          <mxGeometry x="-180" y="140" width="120" height="60" as="geometry" />
        </mxCell>
        <mxCell id="-MMtbb6PxucikG_57jku-5" value="" style="edgeStyle=orthogonalEdgeStyle;rounded=0;orthogonalLoop=1;jettySize=auto;html=1;" edge="1" parent="WIyWlLk6GJQsqaUBKTNV-1" source="-MMtbb6PxucikG_57jku-3">
          <mxGeometry relative="1" as="geometry">
            <mxPoint x="70" y="480" as="targetPoint" />
          </mxGeometry>
        </mxCell>
        <mxCell id="-MMtbb6PxucikG_57jku-8" style="edgeStyle=orthogonalEdgeStyle;rounded=0;orthogonalLoop=1;jettySize=auto;html=1;exitX=0;exitY=0.5;exitDx=0;exitDy=0;exitPerimeter=0;entryX=0.5;entryY=0;entryDx=0;entryDy=0;" edge="1" parent="WIyWlLk6GJQsqaUBKTNV-1" source="-MMtbb6PxucikG_57jku-3" target="-MMtbb6PxucikG_57jku-6">
          <mxGeometry relative="1" as="geometry" />
        </mxCell>
        <mxCell id="-MMtbb6PxucikG_57jku-3" value="&lt;font style=&quot;font-size: 14px;&quot;&gt;gl_pos==0&lt;/font&gt;" style="strokeWidth=2;html=1;shape=mxgraph.flowchart.decision;whiteSpace=wrap;" vertex="1" parent="WIyWlLk6GJQsqaUBKTNV-1">
          <mxGeometry x="-200" y="370" width="160" height="100" as="geometry" />
        </mxCell>
        <mxCell id="-MMtbb6PxucikG_57jku-20" style="edgeStyle=orthogonalEdgeStyle;rounded=0;orthogonalLoop=1;jettySize=auto;html=1;exitX=0.5;exitY=1;exitDx=0;exitDy=0;entryX=0.5;entryY=0;entryDx=0;entryDy=0;entryPerimeter=0;" edge="1" parent="WIyWlLk6GJQsqaUBKTNV-1" source="-MMtbb6PxucikG_57jku-4" target="-MMtbb6PxucikG_57jku-9">
          <mxGeometry relative="1" as="geometry" />
        </mxCell>
        <mxCell id="-MMtbb6PxucikG_57jku-4" value="&lt;font style=&quot;font-size: 14px;&quot;&gt;gl_pos--&lt;/font&gt;" style="whiteSpace=wrap;html=1;strokeWidth=2;" vertex="1" parent="WIyWlLk6GJQsqaUBKTNV-1">
          <mxGeometry x="10" y="480" width="120" height="60" as="geometry" />
        </mxCell>
        <mxCell id="-MMtbb6PxucikG_57jku-18" style="edgeStyle=orthogonalEdgeStyle;rounded=0;orthogonalLoop=1;jettySize=auto;html=1;exitX=0.5;exitY=1;exitDx=0;exitDy=0;entryX=0.5;entryY=0;entryDx=0;entryDy=0;entryPerimeter=0;" edge="1" parent="WIyWlLk6GJQsqaUBKTNV-1" source="-MMtbb6PxucikG_57jku-6" target="-MMtbb6PxucikG_57jku-9">
          <mxGeometry relative="1" as="geometry" />
        </mxCell>
        <mxCell id="-MMtbb6PxucikG_57jku-6" value="&lt;font style=&quot;font-size: 14px;&quot;&gt;gl_pos=gl_length&lt;/font&gt;" style="whiteSpace=wrap;html=1;strokeWidth=2;" vertex="1" parent="WIyWlLk6GJQsqaUBKTNV-1">
          <mxGeometry x="-360" y="480" width="120" height="60" as="geometry" />
        </mxCell>
        <mxCell id="-MMtbb6PxucikG_57jku-21" style="edgeStyle=orthogonalEdgeStyle;rounded=0;orthogonalLoop=1;jettySize=auto;html=1;exitX=0.5;exitY=1;exitDx=0;exitDy=0;exitPerimeter=0;entryX=0.5;entryY=0;entryDx=0;entryDy=0;entryPerimeter=0;" edge="1" parent="WIyWlLk6GJQsqaUBKTNV-1" source="-MMtbb6PxucikG_57jku-9" target="-MMtbb6PxucikG_57jku-10">
          <mxGeometry relative="1" as="geometry" />
        </mxCell>
        <mxCell id="-MMtbb6PxucikG_57jku-22" style="edgeStyle=orthogonalEdgeStyle;rounded=0;orthogonalLoop=1;jettySize=auto;html=1;exitX=1;exitY=0.5;exitDx=0;exitDy=0;exitPerimeter=0;entryX=0.5;entryY=0;entryDx=0;entryDy=0;" edge="1" parent="WIyWlLk6GJQsqaUBKTNV-1" source="-MMtbb6PxucikG_57jku-9" target="-MMtbb6PxucikG_57jku-15">
          <mxGeometry relative="1" as="geometry">
            <Array as="points">
              <mxPoint x="180" y="630" />
              <mxPoint x="180" y="940" />
            </Array>
          </mxGeometry>
        </mxCell>
        <mxCell id="-MMtbb6PxucikG_57jku-9" value="&lt;font style=&quot;font-size: 14px;&quot;&gt;gl_key==80&lt;/font&gt;" style="strokeWidth=2;html=1;shape=mxgraph.flowchart.decision;whiteSpace=wrap;" vertex="1" parent="WIyWlLk6GJQsqaUBKTNV-1">
          <mxGeometry x="-200" y="580" width="160" height="100" as="geometry" />
        </mxCell>
        <mxCell id="-MMtbb6PxucikG_57jku-12" value="" style="edgeStyle=orthogonalEdgeStyle;rounded=0;orthogonalLoop=1;jettySize=auto;html=1;" edge="1" parent="WIyWlLk6GJQsqaUBKTNV-1" source="-MMtbb6PxucikG_57jku-10" target="-MMtbb6PxucikG_57jku-11">
          <mxGeometry relative="1" as="geometry" />
        </mxCell>
        <mxCell id="-MMtbb6PxucikG_57jku-14" value="" style="edgeStyle=orthogonalEdgeStyle;rounded=0;orthogonalLoop=1;jettySize=auto;html=1;" edge="1" parent="WIyWlLk6GJQsqaUBKTNV-1" source="-MMtbb6PxucikG_57jku-10">
          <mxGeometry relative="1" as="geometry">
            <mxPoint x="70" y="830" as="targetPoint" />
          </mxGeometry>
        </mxCell>
        <mxCell id="-MMtbb6PxucikG_57jku-10" value="&lt;font style=&quot;font-size: 14px;&quot;&gt;gl_pos==gl_length&lt;/font&gt;" style="strokeWidth=2;html=1;shape=mxgraph.flowchart.decision;whiteSpace=wrap;" vertex="1" parent="WIyWlLk6GJQsqaUBKTNV-1">
          <mxGeometry x="-200" y="720" width="160" height="100" as="geometry" />
        </mxCell>
        <mxCell id="-MMtbb6PxucikG_57jku-23" style="edgeStyle=orthogonalEdgeStyle;rounded=0;orthogonalLoop=1;jettySize=auto;html=1;exitX=0.5;exitY=1;exitDx=0;exitDy=0;entryX=0.5;entryY=0;entryDx=0;entryDy=0;" edge="1" parent="WIyWlLk6GJQsqaUBKTNV-1" source="-MMtbb6PxucikG_57jku-11" target="-MMtbb6PxucikG_57jku-15">
          <mxGeometry relative="1" as="geometry" />
        </mxCell>
        <mxCell id="-MMtbb6PxucikG_57jku-11" value="&lt;font style=&quot;font-size: 14px;&quot;&gt;gl_pos=0&lt;/font&gt;" style="whiteSpace=wrap;html=1;strokeWidth=2;" vertex="1" parent="WIyWlLk6GJQsqaUBKTNV-1">
          <mxGeometry x="-360" y="830" width="120" height="60" as="geometry" />
        </mxCell>
        <mxCell id="-MMtbb6PxucikG_57jku-24" style="edgeStyle=orthogonalEdgeStyle;rounded=0;orthogonalLoop=1;jettySize=auto;html=1;exitX=0.5;exitY=1;exitDx=0;exitDy=0;entryX=0.5;entryY=0;entryDx=0;entryDy=0;" edge="1" parent="WIyWlLk6GJQsqaUBKTNV-1" source="-MMtbb6PxucikG_57jku-13" target="-MMtbb6PxucikG_57jku-15">
          <mxGeometry relative="1" as="geometry" />
        </mxCell>
        <mxCell id="-MMtbb6PxucikG_57jku-13" value="&lt;font style=&quot;font-size: 14px;&quot;&gt;gl_pos++&lt;/font&gt;" style="whiteSpace=wrap;html=1;strokeWidth=2;" vertex="1" parent="WIyWlLk6GJQsqaUBKTNV-1">
          <mxGeometry x="10" y="830" width="120" height="60" as="geometry" />
        </mxCell>
        <mxCell id="-MMtbb6PxucikG_57jku-25" style="edgeStyle=orthogonalEdgeStyle;rounded=0;orthogonalLoop=1;jettySize=auto;html=1;exitX=0.5;exitY=1;exitDx=0;exitDy=0;" edge="1" parent="WIyWlLk6GJQsqaUBKTNV-1" source="-MMtbb6PxucikG_57jku-15" target="-MMtbb6PxucikG_57jku-16">
          <mxGeometry relative="1" as="geometry" />
        </mxCell>
        <mxCell id="-MMtbb6PxucikG_57jku-15" value="&lt;font style=&quot;font-size: 14px;&quot;&gt;return 0&lt;/font&gt;" style="rounded=0;whiteSpace=wrap;html=1;" vertex="1" parent="WIyWlLk6GJQsqaUBKTNV-1">
          <mxGeometry x="-180" y="960" width="120" height="60" as="geometry" />
        </mxCell>
        <mxCell id="-MMtbb6PxucikG_57jku-16" value="&lt;font style=&quot;font-size: 14px;&quot;&gt;КОНЕЦ&lt;/font&gt;" style="strokeWidth=2;html=1;shape=mxgraph.flowchart.terminator;whiteSpace=wrap;" vertex="1" parent="WIyWlLk6GJQsqaUBKTNV-1">
          <mxGeometry x="-170" y="1060" width="100" height="60" as="geometry" />
        </mxCell>
        <mxCell id="-MMtbb6PxucikG_57jku-28" style="edgeStyle=orthogonalEdgeStyle;rounded=0;orthogonalLoop=1;jettySize=auto;html=1;exitX=0.5;exitY=1;exitDx=0;exitDy=0;exitPerimeter=0;entryX=0.5;entryY=0;entryDx=0;entryDy=0;entryPerimeter=0;" edge="1" parent="WIyWlLk6GJQsqaUBKTNV-1" source="-MMtbb6PxucikG_57jku-26" target="-MMtbb6PxucikG_57jku-3">
          <mxGeometry relative="1" as="geometry" />
        </mxCell>
        <mxCell id="-MMtbb6PxucikG_57jku-29" style="edgeStyle=orthogonalEdgeStyle;rounded=0;orthogonalLoop=1;jettySize=auto;html=1;exitX=1;exitY=0.5;exitDx=0;exitDy=0;exitPerimeter=0;" edge="1" parent="WIyWlLk6GJQsqaUBKTNV-1" source="-MMtbb6PxucikG_57jku-26" target="-MMtbb6PxucikG_57jku-9">
          <mxGeometry relative="1" as="geometry">
            <Array as="points">
              <mxPoint x="180" y="280" />
              <mxPoint x="180" y="570" />
              <mxPoint x="-120" y="570" />
            </Array>
          </mxGeometry>
        </mxCell>
        <mxCell id="-MMtbb6PxucikG_57jku-26" value="&lt;font style=&quot;font-size: 14px;&quot;&gt;gl_key==72&lt;/font&gt;" style="strokeWidth=2;html=1;shape=mxgraph.flowchart.decision;whiteSpace=wrap;" vertex="1" parent="WIyWlLk6GJQsqaUBKTNV-1">
          <mxGeometry x="-200" y="230" width="160" height="100" as="geometry" />
        </mxCell>
      </root>
    </mxGraphModel>
  </diagram>
</mxfile>
